# xmcd
#
# Track frame offsets: 
#        150
#        16124
#        36266
#        55764
#        74476
#        90384
#        112323
#        130454
#        147596
#        162466
#        175958
#        187860
#        203308
#        220049
#        235240
#        248756
#        264073
#        278689
#        296279
#        312312
#        327532
#
# Disc length: 4570 seconds
#
# Revision: 0
# Processed by: cddbd v1.5.2PL0 Copyright (c) Steve Scherf et al.
# Submitted via: ExactAudioCopy v0.99pb4
#
DISCID=3011d815
DTITLE=Various Artist - MNM Big Hits 2013-2
DYEAR=2013
DGENRE=Top 40
TTITLE0=Bastille - Pompeii
TTITLE1=Major Lazer Feat. Busy Signal, The Flexican and Fs Green - Watch
TTITLE1=Out For This (Bumaye)
TTITLE2=Robin Thicke Feat. T.I. and Pharrell - Blurred Lines
TTITLE3=Maître Gims - J'Me Tire
TTITLE4=Ozark Henry - I'm Your Sacrifice
TTITLE5=Rudimental Feat. Ella Eyre - Waiting All Night
TTITLE6=Will.I.Am Feat. Justin Bieber - #Thatpower
TTITLE7=Klangkarussell - Sonnentanz
TTITLE8=Slongs Dievanongs - Lacht Nor Mij
TTITLE9=Emmelie De Forest - Only Teardrops
TTITLE10=Chris Malinchak - So Good To Me
TTITLE11=James Arthur - Impossible
TTITLE12=Calvin Harris Feat. Ellie Goulding - I Need Your Love
TTITLE13=Armin Van Buuren Feat. Trevor Guthrie - This Is What It Feels
TTITLE13=Like
TTITLE14=Anouk - Birds
TTITLE15=The Opposites Feat. Mr. Probz - Sukkel Voor De Liefde
TTITLE16=3M8S - My Island
TTITLE17=Editors - A Ton Of Love
TTITLE18=Alex Hepburn - Under
TTITLE19=Gabrielle Aplin - Panic Cord
TTITLE20=Paulien Mathues - There's Some Place I've Got To Be
EXTD=
EXTT0=
EXTT1=
EXTT2=
EXTT3=
EXTT4=
EXTT5=
EXTT6=
EXTT7=
EXTT8=
EXTT9=
EXTT10=
EXTT11=
EXTT12=
EXTT13=
EXTT14=
EXTT15=
EXTT16=
EXTT17=
EXTT18=
EXTT19=
EXTT20=
PLAYORDER=
